<?xml version="1.0" encoding="UTF-8" standalone="no"?>
<svg
   width="31.444679"
   height="31.444679"
   fill="currentColor"
   class="bi bi-hand-index-thumb"
   viewBox="0 0 31.444679 31.444679"
   version="1.1"
   id="svg11"
   xml:space="preserve"
   xmlns="http://www.w3.org/2000/svg"
   xmlns:svg="http://www.w3.org/2000/svg"><defs
     id="defs15" /><g
     id="g17808"
     transform="translate(31.806319,21.538424)"><rect
       style="fill:#fffefe;fill-opacity:1;stroke:#c42f28;stroke-width:1.91295;stroke-opacity:1"
       id="rect16449"
       width="29.531729"
       height="29.531729"
       x="-30.849844"
       y="-20.581949" /><g
       id="g16395"><path
         d="m -24.281721,8.6924862 c -0.224337,-0.270316 -0.324294,-2.389875 -0.281629,-5.971911 0.04266,-3.58162202 0.04266,-3.58162202 -0.173083,-3.58162202 -0.307216,0 -0.413246,-0.46927398 -0.41389,-1.83181298 -6.04e-4,-1.232668 -0.112605,-1.844122 -0.392996,-2.145087 -0.217616,-0.233584 -0.606783,-0.260507 -0.688471,-0.04763 -0.07902,0.205933 -0.08169,0.201 0.139671,0.258886 0.141821,0.03709 0.188467,0.113525 0.165978,0.271979 -0.02579,0.181677 -0.08228,0.216591 -0.321615,0.198749 -0.29033,-0.02164 -0.29033,-0.02164 -0.606659,1.345671 -0.316328,1.367314 -0.316328,1.367314 -0.247777,3.134269 0.05964,1.537318 0.04881,1.797081 -0.08333,1.998754 -0.190045,0.290048 -0.37896,0.293606 -0.660124,0.01244 -0.232322,-0.232326 -0.358242,-0.87917 -0.488299,-2.50836702 -0.06249,-0.782756 -0.06249,-0.782756 -0.435167,-0.782756 -0.775373,0 -1.410238,-0.49315498 -1.410238,-1.09545198 0,-0.653665 0.911367,-1.022565 1.620413,-0.655902 0.155489,0.0804 0.319568,0.123411 0.364621,0.09557 0.04505,-0.02784 0.156448,-0.446354 0.247544,-0.930024 0.165632,-0.879399 0.165632,-0.879399 -0.186699,-1.231729 -0.347603,-0.347605 -0.351443,-0.359687 -0.286064,-0.900242 0.03645,-0.301352 0.110047,-0.602633 0.163554,-0.669517 0.150267,-0.187832 -0.0932,-0.867821 -0.453766,-1.267346 -0.374816,-0.415316 -0.463025,-0.660745 -0.385669,-1.073082 0.08578,-0.457255 0.366554,-0.660481 0.989218,-0.716003 0.535976,-0.04779 0.535976,-0.04779 0.595698,-0.522179 0.07735,-0.6143952 0.485578,-1.5241372 0.832843,-1.8560002 0.464607,-0.444003 0.69843,-0.545185 1.337052,-0.578571 0.616702,-0.03224 0.616702,-0.03224 0.6458,0.317689 0.02574,0.309515 0.07779,0.373502 0.45069,0.55402 0.421594,0.20409 0.421594,0.20409 0.914585,-0.04158 0.536776,-0.267486 0.838184,-0.300921 1.290697,-0.143175 0.301976,0.10527 0.598977,0.579468 0.73803,1.178351 0.03635,0.156547 0.111844,0.342484 0.167769,0.413191 0.08001,0.1011572 0.124369,0.06071 0.208119,-0.189754 0.285313,-0.853258 1.73694,-1.018286 2.21557,-0.251877 0.06411,0.102657 0.134521,0.420633 0.156467,0.7066122 0.04284,0.558317 0.08528,0.486684 -0.691857,1.167811 -0.232588,0.203851 -0.283683,0.397677 -0.09488,0.359914 0.07379,-0.01476 0.118597,0.08381 0.118597,0.260914 0,0.250166 0.03636,0.28816 0.300277,0.31376 0.344637,0.03343 0.466632,0.234059 0.264956,0.435735 -0.144986,0.144986 -0.191875,0.970098 -0.06567,1.155673 0.03834,0.05638 0.517999,0.351809 1.065917,0.656517 0.547916,0.30471 1.491504,0.867192 2.096861,1.249962 0.943896,0.596833 1.142659,0.687545 1.395639,0.636949 0.246373,-0.04928 0.344357,-0.0096 0.594523,0.240534 0.251896,0.251896 0.289997,0.347216 0.239566,0.599366 -0.06978,0.348925 -0.193089,0.448123 -0.559527,0.450131 -0.309049,0.0016 -0.730987,-0.373869 -0.730987,-0.65064 0,-0.113755 -0.138577,-0.270253 -0.355791,-0.401802 -0.195684,-0.118513 -1.01041,-0.638868 -1.810502,-1.156346 -1.519465,-0.982751 -2.102629,-1.211386 -2.231723,-0.874974 -0.04517,0.117701 0.09316,0.30525 0.507612,0.688261 0.481586,0.44505 0.569697,0.576409 0.569697,0.849324 0,0.216275 -0.07688,0.399725 -0.232882,0.555728 -0.264487,0.264489 -0.414285,0.28815 -0.664753,0.105003 -0.140303,-0.102591 -0.162919,-0.202717 -0.114367,-0.50634 0.05275,-0.329893 0.02112,-0.429746 -0.246478,-0.778073 -0.30293,-0.394317 -0.309077,-0.397045 -0.464049,-0.205822 -0.237268,0.292769 -0.311342,1.019215 -0.29325,2.875888 0.01641,1.684724 0.01641,1.684724 -0.264805,2.005021 -0.281222,0.320285 -0.281222,0.320285 -0.197074,1.493664 0.05818,0.811295 0.146033,1.328167 0.284691,1.674993 0.237086,0.593031 0.252067,0.98884 0.05823,1.538246 -0.07828,0.221852 -0.142317,0.668894 -0.142317,0.993432 0,0.693373 -0.159096,0.904115 -0.682537,0.904115 -0.722704,0 -1.124546,-0.721342 -0.785472,-1.409992 0.09349,-0.189886 0.181248,-0.601407 0.195018,-0.914503 0.01377,-0.313095 0.06578,-0.846781 0.115589,-1.185968 0.130584,-0.889331 -0.206943,-5.813171 -0.463907,-6.767462 -0.117984,-0.438167 -0.470979,-0.822725 -0.755195,-0.822725 -0.123157,0 -0.222458,-0.07461 -0.252572,-0.189756 -0.02729,-0.104364 -0.07797,-0.189753 -0.112631,-0.189753 -0.451899,0 -0.800531,7.923919 -0.530672,12.061435 0.07589,1.163537 0.0023,1.411148 -0.419558,1.411148 -0.148322,0 -0.315971,-0.05578 -0.372554,-0.123957 z m -5.281342,-8.795207 c -0.03248,-0.05254 0.0095,-0.12186402 0.09337,-0.15403402 0.181657,-0.06971 0.282897,0.0071 0.195578,0.14839902 -0.07878,0.127468 -0.212042,0.130077 -0.288948,0.0056 z m 15.038475,-4.903263 c -0.07827,-0.03149 -0.310945,-0.189473 -0.517049,-0.351076 -0.206102,-0.161602 -0.454297,-0.280342 -0.551544,-0.263867 -0.09725,0.01647 -0.273308,-0.03327 -0.391246,-0.110547 -0.117937,-0.07728 -0.3176,-0.155132 -0.443697,-0.173014 -0.262367,-0.03721 -0.352255,-0.303887 -0.174588,-0.517962 0.09685,-0.116694 0.251509,-0.131909 0.809451,-0.07963 0.615015,0.05763 0.71733,0.04292 0.944556,-0.135813 0.300825,-0.23663 0.608718,-0.2544 0.990157,-0.05715 0.349183,0.18057 0.472487,0.409588 0.472487,0.877575 0,0.2625 -0.06302,0.428413 -0.218035,0.574043 -0.230574,0.216612 -0.682495,0.333183 -0.920492,0.237438 z m -14.768526,-0.865032 c -0.02663,-0.101846 -0.154896,-0.233685 -0.285028,-0.292977 -0.255732,-0.116521 -0.256767,-0.26955 -0.0029,-0.429681 0.115786,-0.07304 0.212283,-0.06835 0.348856,0.01693 0.103837,0.06485 0.277341,0.117904 0.385565,0.117904 0.16936,0 0.192667,0.04956 0.167322,0.355789 -0.02577,0.311412 -0.06287,0.35962 -0.297415,0.386493 -0.201133,0.02304 -0.280047,-0.01548 -0.316394,-0.154469 z m 14.673648,-1.145459 c 0,-0.137132 0.268865,-0.317195 0.375353,-0.251381 0.191888,0.118593 0.10269,0.334641 -0.138161,0.334641 -0.130455,0 -0.237192,-0.03747 -0.237192,-0.08326 z m -3.691115,-2.472805 c -0.143386,-0.08862 -0.07735,-0.385133 0.08577,-0.385133 0.138916,0 0.23396,0.278377 0.130401,0.381936 -0.04758,0.04758 -0.142101,0.04898 -0.216176,0.0032 z m 0.651088,-0.5322112 c -0.100833,-0.121498 -0.0946,-0.174538 0.03582,-0.304963 0.147261,-0.147262 0.168508,-0.147262 0.315769,0 0.130426,0.130425 0.136655,0.183465 0.03582,0.304963 -0.06714,0.08089 -0.154304,0.1470782 -0.193707,0.1470782 -0.0394,0 -0.12657,-0.06618 -0.193706,-0.1470782 z m 1.089933,0.04393 c -0.09777,-0.1582 0.122126,-0.339614 0.253011,-0.20873 0.10948,0.109481 0.04096,0.311875 -0.105587,0.311875 -0.04602,0 -0.112364,-0.04641 -0.147424,-0.103145 z m 0.524132,-0.04255 c -0.172388,-0.207715 -0.0059,-0.471012 0.297774,-0.471012 0.188807,0 0.226853,0.04774 0.226853,0.284632 0,0.2163202 -0.04753,0.2914232 -0.198058,0.3129302 -0.108931,0.01556 -0.255886,-0.04138 -0.326569,-0.1265502 z m -12.840768,-0.694595 c -0.138992,-0.153586 -0.141653,-0.190892 -0.02077,-0.291216 0.185141,-0.153654 0.569486,0.0386 0.490203,0.24521 -0.03014,0.07854 -0.0548,0.160655 -0.0548,0.182478 0,0.108772 -0.27444,0.01844 -0.414637,-0.136472 z m 16.037773,0.112899 c -0.109168,-0.109169 -0.06909,-0.22138 0.07906,-0.22138 0.07827,0 0.142316,0.06404 0.142316,0.142316 0,0.148158 -0.112211,0.188234 -0.221381,0.07906 z m -15.249316,-0.232012 c -0.05898,-0.110212 -0.08756,-0.303358 -0.0635,-0.429213 0.02406,-0.125854 0.0061,-0.252104 -0.03996,-0.280556 -0.115701,-0.07151 -0.0043,-0.228372 0.162188,-0.228372 0.07519,0 0.136716,0.06404 0.136716,0.142316 0,0.07827 0.07685,0.142316 0.170779,0.142316 0.228088,0 0.398485,0.182568 0.398485,0.426948 0,0.42894 -0.566565,0.596797 -0.764708,0.226561 z m 10.157566,-0.519099 c 0,-0.08262 0.0507,-0.133323 0.112667,-0.112667 0.175924,0.05864 0.205101,0.262889 0.03755,0.262889 -0.08262,0 -0.150222,-0.0676 -0.150222,-0.150222 z m -11.729999,-0.506146 c -0.854402,-0.520989 -0.778786,-1.525811 0.114821,-1.525811 0.670701,0 1.210458,0.928594 0.855049,1.471017 -0.189967,0.289927 -0.550827,0.310314 -0.96987,0.05479 z m 5.620561,-0.442482 c -0.109287,-0.284797 -0.05657,-0.405801 0.241619,-0.554555 0.375043,-0.187096 0.338869,-0.199287 0.413224,0.139253 0.03874,0.176394 0.01872,0.342315 -0.05152,0.426948 -0.152726,0.184024 -0.531042,0.176722 -0.603326,-0.01165 z"
         style="fill:#c42f28;fill-opacity:1;stroke-width:0.0948774"
         id="path14580" /><g
         style="fill:currentColor"
         id="g8832"
         transform="rotate(-23.100604,-51.599834,57.276249)"><path
           d="M 9.972,2.508 A 0.5,0.5 0 0 0 9.812,1.952 L 9.634,1.823 A 5,5 0 0 0 7.558,1.04 C 6.215,0.862 4.504,1.229 2.84,3.133 H 1.786 A 0.5,0.5 0 0 0 1.432,3.28 L 0.146,4.567 a 0.5,0.5 0 0 0 0,0.706 l 2.571,2.579 a 0.5,0.5 0 0 0 0.708,0 L 4.711,6.562 A 0.5,0.5 0 0 0 4.857,6.209 V 5.57 l 8.387,8.873 A 0.5,0.5 0 0 0 14,14.5 L 15.5,13 a 0.5,0.5 0 0 0 0.017,-0.689 L 6.388,3.681 C 7.135,3.225 8.16,2.842 9.5,2.842 A 0.5,0.5 0 0 0 9.972,2.508"
           id="path8823" /></g><g
         id="g14349"
         transform="matrix(0.63353637,0.77371291,0.77371291,-0.63353637,-8.5384401,-25.813231)"><path
           style="fill:#fefefe;fill-opacity:1"
           d="m 9.4072728,-17.675714 a 0.75,0.75 0 0 1 0.7500002,0.75 v 6.25 a 0.5,0.5 0 0 0 1,0 v -2.533 l 0.086,-0.004 c 0.317,-0.012 0.637,-0.008 0.816,0.027 0.134,0.027 0.294,0.096 0.448,0.182 0.077,0.042 0.15,0.147 0.15,0.314 v 2.014 a 0.5,0.5 0 0 0 1,0 v -1.565 l 0.106,-0.01 c 0.316,-0.024 0.584,-0.01 0.708,0.04 0.118,0.046 0.3,0.207 0.486,0.43 0.081,0.096 0.15,0.19 0.2,0.259 v 1.346 a 0.5,0.5 0 1 0 1,0 v -1 h 0.342 a 1,1 0 0 1 0.995,1.1 l -0.271,2.715 a 2.5,2.5 0 0 1 -0.317,0.991 l -1.395,2.442 a 0.5,0.5 0 0 1 -0.434,0.252 H 8.7752728 a 0.5,0.5 0 0 1 -0.447,-0.276 l -1.232,-2.465 -2.512,-4.185 a 0.517,0.517 0 0 1 0.809,-0.631 l 2.41,2.41 a 0.5,0.5 0 0 0 0.854,-0.353 v -7.75 a 0.75,0.75 0 0 1 0.75,-0.75"
           id="path13565" /><path
           d="m 9.4072728,-17.675714 a 0.75,0.75 0 0 1 0.7500002,0.75 v 6.25 a 0.5,0.5 0 0 0 1,0 v -2.533 l 0.086,-0.004 c 0.317,-0.012 0.637,-0.008 0.816,0.027 0.134,0.027 0.294,0.096 0.448,0.182 0.077,0.042 0.15,0.147 0.15,0.314 v 2.014 a 0.5,0.5 0 0 0 1,0 v -1.565 l 0.106,-0.01 c 0.316,-0.024 0.584,-0.01 0.708,0.04 0.118,0.046 0.3,0.207 0.486,0.43 0.081,0.096 0.15,0.19 0.2,0.259 v 1.346 a 0.5,0.5 0 1 0 1,0 v -1 h 0.342 a 1,1 0 0 1 0.995,1.1 l -0.271,2.715 a 2.5,2.5 0 0 1 -0.317,0.991 l -1.395,2.442 a 0.5,0.5 0 0 1 -0.434,0.252 H 8.7752728 a 0.5,0.5 0 0 1 -0.447,-0.276 l -1.232,-2.465 -2.512,-4.185 a 0.517,0.517 0 0 1 0.809,-0.631 l 2.41,2.41 a 0.5,0.5 0 0 0 0.854,-0.353 v -7.75 a 0.75,0.75 0 0 1 0.75,-0.75 m 1.7500002,3.466 v -2.716 a 1.7500001,1.7500001 0 1 0 -3.5000002,0 v 6.543 l -1.557,-1.557 a 1.517,1.517 0 0 0 -2.373,1.852 l 2.491,4.153 1.215,2.43 a 1.5,1.5 0 0 0 1.342,0.829 h 6.3020002 a 1.5,1.5 0 0 0 1.302,-0.756 l 1.395,-2.441 a 3.5,3.5 0 0 0 0.444,-1.389 l 0.271,-2.715 a 2,2 0 0 0 -1.99,-2.199 h -0.581 a 5,5 0 0 0 -0.195,-0.248 c -0.191,-0.229 -0.51,-0.568 -0.88,-0.716 -0.364,-0.146 -0.846,-0.132 -1.158,-0.108 l -0.132,0.012 a 1.26,1.26 0 0 0 -0.56,-0.642 2.6,2.6 0 0 0 -0.738,-0.288 c -0.31,-0.062 -0.739,-0.058 -1.05,-0.046 z m 2.094,2.025"
           id="path11012"
           style="fill:#000000;fill-opacity:1" /></g></g></g><path
     style="fill:#fefefe;fill-opacity:1"
     d="M 45.057592,9.3537103"
     id="path14345" /></svg>
